<?xml version="1.0" encoding="utf-8"?>
<!-- Generator: Adobe Illustrator 21.1.0, SVG Export Plug-In . SVG Version: 6.00 Build 0)  -->
<svg version="1.1" id="Layer_1" xmlns="http://www.w3.org/2000/svg" xmlns:xlink="http://www.w3.org/1999/xlink" x="0px" y="0px"
	 viewBox="0 0 128 128" style="enable-background:new 0 0 128 128;" xml:space="preserve">
<style type="text/css">
	.st0{fill:none;stroke:#000000;stroke-miterlimit:10;}
	.st1{fill:#1D1D1D;}
</style>
<title>LSTM block</title>
<g>
	<text transform="matrix(1 0 0 1 -188 220)"><tspan x="0" y="0" style="font-family:'LucidaConsole'; font-size:24px;">Pargraph</tspan><tspan x="0" y="28.8" style="font-family:'LucidaConsole'; font-size:24px;">Matrix</tspan></text>
	<g>
		<rect x="-72" y="84" class="st0" width="80" height="24"/>
		<path class="st0" d="M-32,84"/>
		<path class="st0" d="M-32,108"/>
		<line class="st0" x1="-52" y1="85" x2="-52" y2="107"/>
		<line class="st0" x1="-32" y1="108" x2="-32" y2="84"/>
		<line class="st0" x1="-12" y1="85" x2="-12" y2="107"/>
	</g>
	<g>
		<rect x="24" y="84" class="st0" width="80" height="24"/>
		<path class="st0" d="M64,84"/>
		<path class="st0" d="M64,108"/>
		<line class="st0" x1="44" y1="85" x2="44" y2="107"/>
		<line class="st0" x1="64" y1="84" x2="64" y2="108"/>
		<line class="st0" x1="84" y1="85" x2="84" y2="107"/>
	</g>
	<g>
		<rect x="120" y="84" class="st0" width="80" height="24"/>
		<path class="st0" d="M160,84"/>
		<path class="st0" d="M160,108"/>
		<line class="st0" x1="140" y1="85" x2="140" y2="107"/>
		<line class="st0" x1="160" y1="84" x2="160" y2="108"/>
		<line class="st0" x1="180" y1="85" x2="180" y2="107"/>
	</g>
	<g>
		<rect x="216" y="84" class="st0" width="80" height="24"/>
		<path class="st0" d="M256,84"/>
		<path class="st0" d="M256,108"/>
		<line class="st0" x1="236" y1="85" x2="236" y2="107"/>
		<line class="st0" x1="256" y1="84" x2="256" y2="108"/>
		<line class="st0" x1="276" y1="85" x2="276" y2="107"/>
	</g>
	<rect x="72" y="-44" class="st0" width="80" height="24"/>
	<path class="st0" d="M112-44"/>
	<path class="st0" d="M112-20"/>
	<line class="st0" x1="92" y1="-43" x2="92" y2="-21"/>
	<line class="st0" x1="112" y1="-44" x2="112" y2="-20"/>
	<line class="st0" x1="132" y1="-43" x2="132" y2="-21"/>
	<text transform="matrix(1 0 0 1 -188 32)"><tspan x="0" y="0" style="font-family:'LucidaConsole'; font-size:24px;">Average/</tspan><tspan x="0" y="28.8" style="font-family:'LucidaConsole'; font-size:24px;">Concatenate</tspan></text>
	<g>
		<g>
			<g>
				<polygon class="st1" points="224.7,63.3 156.1,-5.3 157.3,-6.6 152,-8 153.4,-2.7 154.7,-3.9 223.3,64.7 				"/>
			</g>
		</g>
	</g>
	<g>
		<g>
			<g>
				<polygon class="st1" points="160.9,63.6 134.7,-3.9 136.3,-4.5 132,-8 131.2,-2.5 132.8,-3.2 159.1,64.4 				"/>
			</g>
		</g>
	</g>
	<g>
		<g>
			<g>
				<polygon class="st1" points="-31,184 -31,124.8 -29.2,124.8 -32,120 -34.8,124.8 -33,124.8 -33,184 				"/>
			</g>
		</g>
	</g>
	<g>
		<g>
			<g>
				<polygon class="st1" points="65,184 65,124.8 66.8,124.8 64,120 61.2,124.8 63,124.8 63,184 				"/>
			</g>
		</g>
	</g>
	<g>
		<g>
			<g>
				<polygon class="st1" points="161,184 161,124.8 162.8,124.8 160,120 157.2,124.8 159,124.8 159,184 				"/>
			</g>
		</g>
	</g>
	<g>
		<g>
			<g>
				<polygon class="st1" points="257,184 257,124.8 258.8,124.8 256,120 253.2,124.8 255,124.8 255,184 				"/>
			</g>
		</g>
	</g>
	<g>
		<g>
			<g>
				<polygon class="st1" points="0.7,64.7 69.3,-3.9 70.6,-2.7 72,-8 66.7,-6.6 67.9,-5.3 -0.7,63.3 				"/>
			</g>
		</g>
	</g>
	<g>
		<g>
			<g>
				<polygon class="st1" points="64.9,64.4 91.2,-3.2 92.8,-2.5 92,-8 87.7,-4.5 89.3,-3.9 63.1,63.6 				"/>
			</g>
		</g>
	</g>
	<text transform="matrix(1 0 0 1 -188 -128.334)" style="font-family:'LucidaConsole'; font-size:24px;">Classifier</text>
	<rect x="84" y="-172" class="st0" width="56" height="56"/>
	<text transform="matrix(1 0 0 1 92.7188 -134.3672)" style="font-family:'LucidaConsole'; font-size:32px;">on</text>
	<rect x="-60" y="196" class="st0" width="56" height="56"/>
	<text transform="matrix(1 0 0 1 -41.6406 233.6328)" style="font-family:'LucidaConsole'; font-size:32px;">D</text>
	<rect x="36" y="196" class="st0" width="56" height="56"/>
	<text transform="matrix(1 0 0 1 54.3594 233.6328)" style="font-family:'LucidaConsole'; font-size:32px;">W</text>
	<rect x="132" y="196" class="st0" width="56" height="56"/>
	<text transform="matrix(1 0 0 1 150.3594 233.6328)" style="font-family:'LucidaConsole'; font-size:32px;">W</text>
	<rect x="228" y="196" class="st0" width="56" height="56"/>
	<text transform="matrix(1 0 0 1 246.3594 233.6328)" style="font-family:'LucidaConsole'; font-size:32px;">W</text>
	<g>
		<g>
			<g>
				<polygon class="st1" points="113,-52 113,-100.2 114.8,-100.2 112,-105 109.2,-100.2 111,-100.2 111,-52 				"/>
			</g>
		</g>
	</g>
	<text transform="matrix(1 0 0 1 -97.0742 284)"><tspan x="0" y="0" style="font-family:'LucidaConsole'; font-size:24px;">Paragraph</tspan><tspan x="50.6" y="28.8" style="font-family:'LucidaConsole'; font-size:24px;">ID</tspan></text>
	<text transform="matrix(1 0 0 1 42.3086 284)" style="font-family:'LucidaConsole'; font-size:24px;">the</text>
	<text transform="matrix(1 0 0 1 138.3086 284)" style="font-family:'LucidaConsole'; font-size:24px;">cat</text>
	<text transform="matrix(1 0 0 1 234.3086 284)" style="font-family:'LucidaConsole'; font-size:24px;">sat</text>
</g>
</svg>
